<svg id="Layer_1" data-name="Layer 1" xmlns="http://www.w3.org/2000/svg" viewBox="0 0 30 22"><defs><style>.cls-1{fill:#fff;}</style></defs><title>Artboard 1</title><g id="Symbols"><g id="icon_api" data-name="icon/api"><g id="Combined-Shape"><path id="path-1" class="cls-1" d="M6,17.7.47,12.15a1.64,1.64,0,0,1,0-2.3L6,4.2a1.6,1.6,0,0,1,2.72.7,1.66,1.66,0,0,1-.42,1.59L3.89,11l4.35,4.41a1.66,1.66,0,0,1,0,2.32A1.59,1.59,0,0,1,6,17.7ZM24,4.17l5.49,5.54a1.65,1.65,0,0,1,0,2.31l-5.48,5.65a1.61,1.61,0,0,1-2.72-.7,1.66,1.66,0,0,1,.42-1.59l4.36-4.48L21.76,6.49a1.66,1.66,0,0,1,0-2.32A1.59,1.59,0,0,1,24,4.17ZM9.78,19.83Q15.36,5.21,16.87,1.21a1.64,1.64,0,0,1,3.13,1L12.9,20.79a1.63,1.63,0,0,1-3.12-1Z"/></g></g></g></svg>