<svg xmlns="http://www.w3.org/2000/svg" viewBox="0 0 115.05 69.48"><defs><style>.cls-1{fill:#fff;fill-rule:evenodd;}</style></defs><title>ytel-logo</title><g id="Layer_2" data-name="Layer 2"><g id="Layer_3" data-name="Layer 3"><path class="cls-1" d="M95,8.85V34.62a5.85,5.85,0,0,0-1,.67,77.45,77.45,0,0,1-6.62,5.23V8.85ZM18.82,6.26a6,6,0,0,1,1.55-4.19A6.18,6.18,0,0,1,24.77,0a6,6,0,0,1,4.71,2.07,5.54,5.54,0,0,1,1.81,4.19,6.29,6.29,0,0,1-6.52,6.52,6.49,6.49,0,0,1-4.4-1.86A6.9,6.9,0,0,1,18.82,6.26ZM15.41,9.11l9.78,16.14L35.49,9.11H46.4L30.52,34.77V54.7H20V34.77L4.59,9.11ZM37.56,29.19l7.71-14.33v6.52h7.3l-.16,7.55H45.27V42.48q0,3.88,1.55,5.17A11,11,0,0,0,51,49.73l1.91.41-3.52,6.62a2.18,2.18,0,0,0-.52.16l-2.33-.78a14.56,14.56,0,0,1-6.26-3.78,10.27,10.27,0,0,1-2.07-3.93,20.1,20.1,0,0,1-.52-5.07V29.19ZM16.08,46.88q-7.56,5-6.26,8.07,2.74,6.93,18.37,6.78a91.45,91.45,0,0,0,20.7-2.85,1.71,1.71,0,0,0,.52-.26Q55.15,57,60.89,55A5.34,5.34,0,0,0,63,54.44a129.08,129.08,0,0,0,16-7.3,93.39,93.39,0,0,0,8.33-5q3.52-2.33,6.62-4.81a3.32,3.32,0,0,1,1-.88q10.71-9.42,8.12-16-1.09-2.07-4.45-1.81,14.07-3.78,16,1,2.43,6.26-12.42,20.18-3.52,2.9-7.3,5.74-3.52,2.48-7.14,4.81A143.16,143.16,0,0,1,63.64,61.22q-23.34,7.71-42,8.23Q2.78,70,.3,63.55-2.19,57.44,16.08,46.88Zm69.19-5.74H60a9.38,9.38,0,0,0,2.23,5,8.66,8.66,0,0,0,6.62,2.33q3.52-.36,5.49-.78Q68.81,50.3,63,52.47q-1.19.41-2.07.78a15.71,15.71,0,0,1-6.11-5.85,16.21,16.21,0,0,1-2.48-9.11q0-8,4.66-12.89A14.78,14.78,0,0,1,68.29,21a15.6,15.6,0,0,1,8.9,2,14.89,14.89,0,0,1,6,6.26q2.12,3.62,2.12,10.66ZM68.55,27.74A8.84,8.84,0,0,0,62.34,30,7,7,0,0,0,60,35.29H77.3a7.33,7.33,0,0,0-2.48-5.49A9.08,9.08,0,0,0,68.55,27.74Z"/></g></g></svg>